<mxfile host="app.diagrams.net" modified="2023-11-13T14:58:58.038Z" agent="Mozilla/5.0 (Windows NT 10.0; Win64; x64) AppleWebKit/537.36 (KHTML, like Gecko) Chrome/110.0.0.0 Safari/537.36" etag="yWdDNO7DuIM1uoL8x7uV" version="22.1.0" type="device">
  <diagram name="PÃ¡gina-1" id="DZmhfnWZRSIIMBUT1VN2">
    <mxGraphModel dx="954" dy="559" grid="1" gridSize="10" guides="1" tooltips="1" connect="1" arrows="1" fold="1" page="1" pageScale="1" pageWidth="827" pageHeight="1169" math="0" shadow="0">
      <root>
        <mxCell id="0" />
        <mxCell id="1" parent="0" />
        <mxCell id="7QfS9P6-W3Mq-XmjWOR0-1" value="&lt;font style=&quot;font-size: 18px&quot;&gt;RANA(&lt;font color=&quot;#ff0000&quot;&gt;&lt;u&gt;cod_Rana&lt;/u&gt;&lt;/font&gt;, Especie)&lt;/font&gt;" style="text;html=1;align=left;verticalAlign=middle;resizable=0;points=[];autosize=1;" vertex="1" parent="1">
          <mxGeometry x="260" y="200" width="240" height="40" as="geometry" />
        </mxCell>
        <mxCell id="7QfS9P6-W3Mq-XmjWOR0-2" value="&lt;font style=&quot;font-size: 18px&quot;&gt;INSECTO(&lt;u style=&quot;border-color: var(--border-color); color: rgb(255, 0, 0);&quot;&gt;cod_Insecto&lt;/u&gt;, Especie)&lt;/font&gt;" style="text;html=1;align=left;verticalAlign=middle;resizable=0;points=[];autosize=1;" vertex="1" parent="1">
          <mxGeometry x="260" y="360" width="290" height="40" as="geometry" />
        </mxCell>
        <mxCell id="7QfS9P6-W3Mq-XmjWOR0-4" value="&lt;font style=&quot;font-size: 18px&quot;&gt;COME(&lt;font color=&quot;#ff0000&quot;&gt;&lt;u&gt;cod_Rana, cod_Insecto&lt;/u&gt;&lt;/font&gt;)&lt;/font&gt;" style="text;html=1;align=left;verticalAlign=middle;resizable=0;points=[];autosize=1;" vertex="1" parent="1">
          <mxGeometry x="260" y="280" width="280" height="40" as="geometry" />
        </mxCell>
        <mxCell id="7QfS9P6-W3Mq-XmjWOR0-5" style="edgeStyle=orthogonalEdgeStyle;rounded=0;orthogonalLoop=1;jettySize=auto;html=1;entryX=0.159;entryY=-0.05;entryDx=0;entryDy=0;entryPerimeter=0;" edge="1" parent="1" source="7QfS9P6-W3Mq-XmjWOR0-4" target="7QfS9P6-W3Mq-XmjWOR0-2">
          <mxGeometry relative="1" as="geometry">
            <Array as="points">
              <mxPoint x="450" y="340" />
              <mxPoint x="306" y="340" />
            </Array>
          </mxGeometry>
        </mxCell>
        <mxCell id="7QfS9P6-W3Mq-XmjWOR0-6" style="edgeStyle=orthogonalEdgeStyle;rounded=0;orthogonalLoop=1;jettySize=auto;html=1;entryX=0.138;entryY=1;entryDx=0;entryDy=0;entryPerimeter=0;" edge="1" parent="1" source="7QfS9P6-W3Mq-XmjWOR0-4" target="7QfS9P6-W3Mq-XmjWOR0-1">
          <mxGeometry relative="1" as="geometry">
            <Array as="points">
              <mxPoint x="370" y="260" />
              <mxPoint x="293" y="260" />
            </Array>
          </mxGeometry>
        </mxCell>
      </root>
    </mxGraphModel>
  </diagram>
</mxfile>
